<svg id="Layer_1" data-name="Layer 1" xmlns="http://www.w3.org/2000/svg" xmlns:xlink="http://www.w3.org/1999/xlink" viewBox="0 0 400 500"><defs><style>.cls-1{fill:#fff;}.cls-2{fill:#ff7bac;}.cls-3{fill:url(#linear-gradient);}.cls-4{fill:url(#linear-gradient-2);}.cls-5{fill:url(#linear-gradient-3);}</style><linearGradient id="linear-gradient" x1="-99.9" y1="176.61" x2="33.43" y2="176.61" gradientTransform="translate(509.94 99.9) rotate(90)" gradientUnits="userSpaceOnUse"><stop offset="0" stop-color="#fff" stop-opacity="0"/><stop offset="1" stop-color="#ff7bac"/></linearGradient><linearGradient id="linear-gradient-2" x1="-16.47" y1="666.07" x2="116.87" y2="666.07" gradientTransform="translate(250.2 1099.4) rotate(180)" xlink:href="#linear-gradient"/><linearGradient id="linear-gradient-3" x1="200" y1="476.31" x2="333.33" y2="476.31" gradientTransform="translate(-409.64 500) rotate(-90)" xlink:href="#linear-gradient"/></defs><path class="cls-1" d="M250,498.5C140.55,498.5,51.5,409.45,51.5,300V233.33a65.17,65.17,0,0,1,130.33,0V300a68.17,68.17,0,0,0,136.34,0V66.67a65.17,65.17,0,1,1,130.33,0V300C448.5,409.45,359.45,498.5,250,498.5Z" transform="translate(-50 0)"/><path class="cls-2" d="M383.33,3A63.74,63.74,0,0,1,447,66.67V300a197,197,0,1,1-394,0V233.33a63.67,63.67,0,0,1,127.33,0V300a69.67,69.67,0,0,0,139.34,0V66.67A63.74,63.74,0,0,1,383.33,3m0-3a66.66,66.66,0,0,0-66.66,66.67V300a66.67,66.67,0,0,1-133.34,0V233.33a66.67,66.67,0,0,0-133.33,0V300c0,110.46,89.54,200,200,200s200-89.54,200-200V66.67A66.67,66.67,0,0,0,383.33,0Z" transform="translate(-50 0)"/><circle class="cls-3" cx="333.33" cy="66.67" r="66.67"/><circle class="cls-4" cx="200" cy="433.33" r="66.67"/><circle class="cls-5" cx="66.67" cy="233.33" r="66.67"/></svg>